<?xml version="1.0" encoding="UTF-8"?>
<svg viewBox="0 0 203 68" xmlns="http://www.w3.org/2000/svg">
<path d="m14.3 66.2h-1.5c-1.1 0-2.1-0.1-3.2-0.3-1-0.2-1.9-0.5-2.8-0.9s-1.7-1-2.4-1.7-1.3-1.5-1.7-2.4-0.8-1.9-0.9-2.8c-0.2-1-0.3-2.1-0.3-3.2v-1.5-39.1-1.5c0-1.1 0.1-2.1 0.3-3.2 0.2-1 0.5-1.9 0.9-2.8s1-1.7 1.7-2.4 1.5-1.3 2.4-1.7 1.8-0.8 2.8-0.9c1-0.2 2.1-0.3 3.2-0.3h1.5 173.8 1.5c1.1 0 2.1 0.1 3.1 0.3s1.9 0.5 2.8 0.9c1.8 0.9 3.2 2.3 4.1 4.1 0.4 0.9 0.7 1.8 0.9 2.8 0.2 1.1 0.3 2.1 0.3 3.2v1.5 1.8 35.4 1.8 1.6c0 1.1-0.1 2.1-0.3 3.1s-0.5 1.9-0.9 2.8-1 1.7-1.7 2.3c-0.7 0.7-1.5 1.3-2.4 1.7s-1.8 0.8-2.8 0.9c-1 0.2-2.1 0.3-3.2 0.3h-1.5-1.8l-171.9 0.2z"/>
<path d="m41.9 34.3c0-1.4 0.4-2.8 1.1-4s1.7-2.3 2.9-3c-0.8-1.1-1.8-2-2.9-2.6-1.2-0.6-2.5-1-3.8-1-2.8-0.3-5.6 1.7-7 1.7-1.5 0-3.7-1.7-6.1-1.6-1.6 0.1-3.1 0.5-4.4 1.3s-2.4 1.9-3.2 3.3c-3.3 5.7-0.8 14 2.3 18.6 1.6 2.2 3.4 4.7 5.8 4.7 2.3-0.1 3.2-1.5 6.1-1.5 2.8 0 3.6 1.5 6.1 1.4 2.5 0 4.1-2.3 5.6-4.5 1.1-1.6 2-3.4 2.6-5.2-1.5-0.6-2.7-1.7-3.6-3-1-1.4-1.5-3-1.5-4.6z" fill="#fff"/>
<path d="m37.3 20.7c1.4-1.6 2-3.8 1.9-5.9-2.1 0.2-4 1.2-5.4 2.8-0.7 0.8-1.2 1.7-1.5 2.6-0.3 1-0.5 2-0.4 3 1 0 2.1-0.2 3-0.7 0.9-0.4 1.7-1 2.4-1.8z" fill="#fff"/>
<path d="m71.5 45.9h-8l-1.9 5.7h-3.4l7.6-21h3.5l7.6 21h-3.4l-2-5.7zm-7.1-2.6h6.3l-3.1-9.2h-0.1l-3.1 9.2z" fill="#fff"/>
<path d="m93.3 43.9c0 4.8-2.5 7.8-6.4 7.8-1 0.1-1.9-0.2-2.8-0.6-0.9-0.5-1.6-1.2-2-2h-0.1v7.6h-3.1v-20.4h3v2.5h0.1c0.5-0.8 1.2-1.6 2.1-2 0.9-0.5 1.8-0.7 2.8-0.7 3.8 0 6.4 3.1 6.4 7.8zm-3.2 0c0-3.1-1.6-5.1-4-5.1s-4 2.1-4 5.1c0 3.1 1.6 5.2 4 5.2s4-2.1 4-5.2z" fill="#fff"/>
<path d="m110.1 43.9c0 4.8-2.5 7.8-6.4 7.8-1 0.1-1.9-0.2-2.8-0.6-0.9-0.5-1.6-1.2-2-2h-0.1v7.6h-3.1v-20.4h3v2.5h0.1c0.5-0.8 1.2-1.6 2.1-2 0.9-0.5 1.8-0.7 2.8-0.7 3.9 0 6.4 3.1 6.4 7.8zm-3.2 0c0-3.1-1.6-5.1-4-5.1s-4 2.1-4 5.1c0 3.1 1.6 5.2 4 5.2s4-2.1 4-5.2z" fill="#fff"/>
<path d="m121.3 45.7c0.2 2.1 2.3 3.5 5 3.5 2.6 0 4.6-1.4 4.6-3.2 0-1.6-1.1-2.6-3.9-3.3l-2.7-0.7c-3.9-0.9-5.6-2.7-5.6-5.7 0-3.6 3.2-6.1 7.6-6.1s7.5 2.5 7.6 6.1h-3.2c-0.2-2.1-1.9-3.4-4.5-3.4-2.5 0-4.3 1.3-4.3 3.1 0 1.5 1.1 2.4 3.8 3l2.3 0.6c4.3 1 6.1 2.7 6.1 5.8 0 3.9-3.1 6.4-8.1 6.4-4.7 0-7.8-2.4-8-6.2l3.3 0.1z" fill="#fff"/>
<path d="m141 32.6v3.6h2.9v2.5h-2.9v8.4c0 1.3 0.6 1.9 1.9 1.9 0.3 0 0.7 0 1-0.1v2.5c-0.6 0.1-1.2 0.2-1.7 0.1-3.1 0-4.3-1.2-4.3-4.1v-8.8h-2.2v-2.5h2.2v-3.6h3.1z" fill="#fff"/>
<path d="m145.6 43.9c0-4.8 2.8-7.8 7.3-7.8 4.4 0 7.3 3 7.3 7.8s-2.8 7.8-7.3 7.8c-4.5 0.1-7.3-2.9-7.3-7.8zm11.3 0c0-3.3-1.5-5.3-4.1-5.3s-4.1 2-4.1 5.3 1.5 5.3 4.1 5.3 4.1-2 4.1-5.3z" fill="#fff"/>
<path d="m162.7 36.3h3v2.6h0.1c0.2-0.8 0.7-1.5 1.4-2s1.5-0.8 2.3-0.7c0.4 0 0.7 0 1.1 0.1v2.9c-0.5-0.1-0.9-0.2-1.4-0.2s-0.9 0.1-1.3 0.2c-0.4 0.2-0.8 0.4-1.1 0.8-0.3 0.3-0.5 0.7-0.7 1.2-0.1 0.4-0.2 0.9-0.1 1.3v9.1h-3.1v-15.3z" fill="#fff"/>
<path d="m185 47.1c-0.4 2.8-3.1 4.7-6.6 4.7-4.5 0-7.2-3-7.2-7.8s2.8-7.9 7.1-7.9c4.2 0 6.9 2.9 6.9 7.6v1.1h-10.8v0.2c-0.1 0.6 0 1.1 0.2 1.7 0.2 0.5 0.5 1 0.9 1.4s0.9 0.7 1.4 0.9 1.1 0.3 1.7 0.3c0.7 0.1 1.5-0.1 2.1-0.5s1.1-1 1.4-1.7h2.9zm-10.6-4.6h7.7c0-0.5 0-1-0.2-1.5s-0.4-0.9-0.8-1.3-0.8-0.7-1.2-0.8c-0.5-0.2-1-0.3-1.5-0.3s-1 0.1-1.5 0.3-0.9 0.5-1.3 0.8c-0.4 0.4-0.6 0.8-0.8 1.3-0.3 0.5-0.4 1-0.4 1.5z" fill="#fff"/>
<path d="m62.1 19h1.3c0.2 0 0.5 0 0.7-0.1l0.6-0.3c0.2-0.2 0.3-0.3 0.4-0.5s0.2-0.4 0.2-0.7c0-0.9-0.7-1.5-1.9-1.5h-0.7l-0.6 0.3c-0.2 0.1-0.3 0.3-0.5 0.5-0.1 0.2-0.2 0.4-0.2 0.7h-1.4c0-0.4 0.1-0.9 0.3-1.2 0.2-0.4 0.5-0.7 0.8-1s0.7-0.5 1.1-0.6 0.9-0.2 1.3-0.1c2 0 3.4 1.1 3.4 2.7 0 0.5-0.2 1.1-0.5 1.5s-0.8 0.7-1.3 0.8v0.1c0.6 0 1.2 0.3 1.6 0.8s0.6 1.1 0.6 1.7c0 0.4-0.2 0.9-0.4 1.3s-0.5 0.7-0.9 1-0.8 0.5-1.2 0.6-0.9 0.2-1.3 0.1c-0.4 0.1-0.9 0-1.3-0.1s-0.8-0.3-1.2-0.6-0.6-0.6-0.9-1c-0.2-0.4-0.4-0.8-0.4-1.3h1.5c0.1 1 1 1.6 2.3 1.6s2.2-0.7 2.2-1.7-0.8-1.6-2.2-1.6h-1.4v-1.4z" fill="#fff"/>
<path d="m69 22.7c0-1.4 1-2.2 2.8-2.3l2.1-0.1v-0.7c0-0.8-0.5-1.3-1.6-1.3-0.8 0-1.4 0.3-1.6 0.8h-1.5c0.2-1.3 1.4-2.1 3.1-2.1 1.9 0 3 1 3 2.6v5.2h-1.3v-1.1h-0.1c-0.2 0.4-0.6 0.7-1 0.9-0.4 0.3-0.9 0.4-1.3 0.4-0.3 0-0.6 0-0.9-0.1s-0.6-0.3-0.8-0.5-0.4-0.5-0.6-0.8-0.2-0.6-0.3-0.9zm4.9-0.6v-0.6l-1.9 0.1c-1 0.1-1.5 0.4-1.5 1.1s0.6 1.1 1.4 1.1c0.2 0 0.5 0 0.7-0.1l0.6-0.3c0.2-0.2 0.3-0.3 0.4-0.6 0.3-0.3 0.3-0.5 0.3-0.7z" fill="#fff"/>
<path d="m79.4 18.5v6.4h-1.5v-7.6h5v1.3l-3.5-0.1z" fill="#fff"/>
<path d="m92.1 21c0 2.4-1.2 3.9-3.1 3.9-0.5 0-0.9-0.1-1.4-0.3s-0.8-0.6-1-1h-0.1v3.7h-1.5v-10.1h1.4v1.3h0.1c0.2-0.4 0.6-0.8 1-1s0.9-0.4 1.4-0.4c1.9 0 3.2 1.5 3.2 3.9zm-1.6 0c0-1.6-0.8-2.6-2-2.6-1.3 0-2.1 1-2.1 2.6s0.8 2.6 2 2.6c1.3 0 2.1-0.9 2.1-2.6z" fill="#fff"/>
<path d="m94.1 27.6v-1.3h0.5c0.3 0 0.6-0.1 0.9-0.3s0.4-0.5 0.5-0.8l0.1-0.4-2.8-7.6h1.6l1.9 6h0.1l1.9-6h1.6l-2.8 7.9c-0.7 1.9-1.4 2.4-2.9 2.4-0.2 0.1-0.5 0.1-0.6 0.1z" fill="#fff"/>
<path d="m101.6 22.7h1.5c0.1 0.7 0.8 1 1.7 1 1 0 1.6-0.4 1.6-1.1s-0.6-1.1-1.6-1.1h-1.1v-1.2h1.1c0.9 0 1.4-0.3 1.4-1 0-0.6-0.4-1-1.4-1-0.8 0-1.5 0.4-1.6 1h-1.4c0.1-0.7 0.5-1.3 1-1.7 0.6-0.4 1.3-0.6 2-0.5 1.8 0 2.8 0.8 2.8 2.1 0 0.4-0.1 0.7-0.3 1s-0.5 0.5-0.9 0.6v0.1c0.4 0.1 0.8 0.3 1.1 0.6s0.4 0.7 0.4 1.1c0 1.4-1.2 2.4-3.1 2.4-1.7 0-3.1-0.8-3.2-2.3z" fill="#fff"/>
<path d="M110,24.9v-7.6h1.5v5.2h0.1l3.5-5.2h1.5v7.6h-1.5v-5.3H115l-3.5,5.3H110z" fill="#fff"/>
<path d="m124.9 18.5h-2.4v6.4h-1.5v-6.4h-2.4v-1.3h6.3v1.3z" fill="#fff"/>
<path d="m132.9 22.8c-0.2 0.7-0.6 1.3-1.3 1.7-0.6 0.4-1.3 0.6-2.1 0.5-0.5 0-1-0.1-1.5-0.3s-0.9-0.5-1.2-0.9-0.6-0.8-0.7-1.3-0.2-1-0.1-1.5c-0.1-0.5 0-1 0.1-1.5s0.4-0.9 0.7-1.3 0.7-0.7 1.2-0.9 1-0.3 1.5-0.3c2.1 0 3.4 1.4 3.4 3.8v0.5h-5.4v0.1c0 0.3 0 0.6 0.1 0.8 0.1 0.3 0.2 0.5 0.4 0.7s0.4 0.4 0.7 0.5 0.5 0.2 0.8 0.2c0.4 0 0.7 0 1-0.2s0.6-0.4 0.8-0.7h1.6zm-5.2-2.5h3.8c0-0.3 0-0.5-0.1-0.8-0.1-0.2-0.2-0.5-0.4-0.6-0.2-0.2-0.4-0.3-0.6-0.4s-0.5-0.1-0.7-0.1c-0.3 0-0.5 0-0.8 0.1-0.2 0.1-0.5 0.2-0.6 0.4-0.2 0.2-0.3 0.4-0.4 0.6-0.2 0.3-0.2 0.6-0.2 0.8z" fill="#fff"/>
<path d="m139.3 17.2h3.4c1.5 0 2.4 0.8 2.4 1.9 0 0.4-0.1 0.7-0.4 1-0.2 0.3-0.6 0.5-0.9 0.6v0.1c0.4 0 0.9 0.2 1.2 0.6 0.3 0.3 0.5 0.8 0.5 1.2 0 1.3-1 2.2-2.7 2.2h-3.5v-7.6zm1.5 1.2v2h1.5c0.9 0 1.3-0.3 1.3-1 0-0.6-0.4-1-1.2-1h-1.6zm0 3.1v2.2h1.8c0.9 0 1.4-0.4 1.4-1.1 0-0.8-0.5-1.1-1.6-1.1h-1.6z" fill="#fff"/>
<path d="m202.4 14.3v-1.6c0-1.1-0.1-2.3-0.3-3.4s-0.5-2.2-1-3.2c-1-2-2.7-3.7-4.7-4.7-1-0.5-2.1-0.9-3.2-1.1s-2.2-0.3-3.4-0.3h-1.6-1.8-170.3-1.9-1.6c-1.1 0-2.3 0.1-3.4 0.3-1 0.2-2.1 0.6-3.1 1.1s-1.9 1.2-2.7 2-1.5 1.7-2 2.7-0.9 2.1-1.1 3.2c-0.2 1.2-0.3 2.3-0.3 3.4v1.6 39.1 1.6c0 1.1 0.1 2.3 0.3 3.4s0.5 2.2 1.1 3.2c0.5 1 1.2 1.9 2 2.7s1.7 1.5 2.7 2 2.1 0.9 3.2 1.1 2.3 0.3 3.4 0.3h1.6 1.9 170.1 1.8 1.6c1.1 0 2.3-0.1 3.4-0.3s2.2-0.6 3.2-1.1 1.9-1.2 2.7-2 1.5-1.7 2-2.7 0.9-2.1 1-3.2c0.2-1.1 0.3-2.3 0.3-3.4v-1.6-1.8-35.5c0.1-0.6 0.1-1.2 0.1-1.8zm-1.5 37.2v1.8 1.6c0 1.1-0.1 2.1-0.3 3.1s-0.5 1.9-0.9 2.8-1 1.7-1.7 2.3c-0.7 0.7-1.5 1.3-2.4 1.7s-1.8 0.8-2.8 0.9c-1 0.2-2.1 0.3-3.2 0.3h-1.5-1.8-172-1.5c-1.1 0-2.1-0.1-3.2-0.3-1-0.2-1.9-0.5-2.8-0.9s-1.7-1-2.4-1.7-1.3-1.5-1.7-2.4c-0.4-0.7-0.8-1.7-0.9-2.6-0.2-1-0.3-2.1-0.3-3.2v-1.5-39.1-1.5c0-1.1 0.1-2.1 0.3-3.2 0.2-1 0.5-1.9 0.9-2.8s1-1.7 1.7-2.4 1.5-1.3 2.4-1.7 1.8-0.8 2.8-0.9c1-0.2 2.1-0.3 3.2-0.3h1.5 173.8 1.5c1.1 0 2.1 0.1 3.1 0.3s1.9 0.5 2.8 0.9c1.8 0.9 3.2 2.3 4.1 4.1 0.4 0.9 0.7 1.8 0.9 2.8 0.2 1.1 0.3 2.1 0.3 3.2v1.5 1.8 35.4z" fill="#a6a6a6"/>
</svg>
