<svg width="197" height="155" viewBox="0 0 197 155" fill="none" xmlns="http://www.w3.org/2000/svg">
<path d="M77.2294 63.0983C85.7587 63.1002 92.6706 52.434 92.6676 39.2745C92.6645 26.1151 85.7478 15.4457 77.2185 15.4437C68.6892 15.4418 61.7773 26.108 61.7804 39.2674C61.7834 52.4269 68.7002 63.0963 77.2294 63.0983Z" fill="white"/>
<rect width="7.05993" height="91.7791" rx="3.52996" transform="matrix(1 0.000408909 0.00040874 1 73.2646 57.8044)" fill="white"/>
<path d="M134.78 61.0543C134.781 63.0038 133.201 64.5836 131.251 64.5828C129.302 64.582 127.721 63.0009 127.72 61.0514L127.703 20.4568C127.702 18.5072 129.282 16.9275 131.232 16.9283C133.181 16.9291 134.762 18.5101 134.763 20.4597L134.78 61.0543Z" fill="white"/>
<rect width="7.05993" height="134.139" rx="3.52996" transform="matrix(-1 -0.000229321 -0.000229237 -1 123.344 151.064)" fill="white"/>
<rect width="7.05993" height="47.6545" rx="3.52996" transform="matrix(-1 -0.000408909 -0.00040874 -1 111.836 64.575)" fill="white"/>
</svg>
