<?xml version="1.0" encoding="UTF-8"?>
<svg enable-background="new 0 0 228.5 68" version="1.1" viewBox="0 0 228.5 68" xml:space="preserve" xmlns="http://www.w3.org/2000/svg">
<style type="text/css">
	.st0{fill:#A6A6A6;}
	.st1{fill:#FFFFFF;}
	.st2{fill:url(#d);}
	.st3{fill:url(#c);}
	.st4{fill:url(#b);}
	.st5{fill:url(#a);}
	.st6{opacity:0.2;enable-background:new    ;}
	.st7{opacity:0.12;enable-background:new    ;}
	.st8{opacity:0.25;fill:#FFFFFF;enable-background:new    ;}
	.st9{fill:#FFFFFF;stroke:#FFFFFF;stroke-width:0.2;stroke-miterlimit:10;}
</style>

	<path d="m219.8 0.4h-211c-4.7 0-8.5 3.7-8.5 8.2v49.5c0 4.6 3.8 8.3 8.5 8.3h211c4.7 0 8.5-3.7 8.5-8.3v-49.5c0-4.5-3.8-8.2-8.5-8.2z"/>
	<path class="st0" d="m219.9 1.6c0.9 0 1.9 0.2 2.7 0.5 0.9 0.4 1.6 0.9 2.3 1.5 0.7 0.7 1.2 1.4 1.5 2.3 0.4 0.9 0.5 1.8 0.5 2.7v50.7c0 1.9-0.7 3.7-2.1 5-1.3 1.3-3.1 2.1-5 2.1h-211.1c-1.9 0-3.7-0.8-5-2.1s-2.1-3.1-2.1-5v-50.6c0-1.9 0.8-3.7 2.1-5s3.1-2.1 5-2.1h211.2zm0-1.3h-211.2c-2.2 0-4.4 0.9-6 2.5-1.6 1.5-2.5 3.7-2.5 5.9v50.7c0 1.1 0.2 2.2 0.6 3.2s1 2 1.8 2.7 1.7 1.4 2.7 1.8 2.1 0.6 3.2 0.6h211.4c2.2 0 4.4-0.9 6-2.5s2.5-3.7 2.5-6v-50.5c0-2.2-0.9-4.4-2.5-6-1.5-1.5-3.6-2.4-6-2.4z"/>
	<path class="st1" d="m115.4 37.1c-1.4 0-2.8 0.4-4 1.2s-2.1 1.9-2.6 3.2-0.7 2.8-0.4 4.2 1 2.7 2 3.7 2.3 1.7 3.7 2 2.8 0.1 4.2-0.4c1.3-0.5 2.4-1.5 3.2-2.7s1.2-2.6 1.2-4c0-1-0.2-1.9-0.5-2.8-0.4-0.9-0.9-1.7-1.6-2.4s-1.5-1.2-2.4-1.6c-0.9-0.3-1.8-0.5-2.8-0.4zm0 11.5c-0.9 0.1-1.7-0.1-2.5-0.6-0.8-0.4-1.4-1.1-1.7-1.9-0.4-0.8-0.5-1.7-0.4-2.5 0.1-0.9 0.5-1.7 1.1-2.3s1.4-1.1 2.2-1.3c0.9-0.2 1.7-0.1 2.6 0.2 0.8 0.3 1.5 0.9 2 1.6s0.8 1.6 0.8 2.5c0 0.6-0.1 1.1-0.2 1.6-0.2 0.5-0.5 1-0.9 1.4s-0.8 0.7-1.3 1c-0.6 0.2-1.1 0.3-1.7 0.3zm-15.7-11.5c-1.4 0-2.8 0.4-4 1.2s-2.1 1.9-2.6 3.2-0.7 2.8-0.4 4.2 1 2.7 2 3.7 2.3 1.7 3.7 2 2.8 0.1 4.2-0.4c1.3-0.5 2.4-1.5 3.2-2.7s1.2-2.6 1.2-4c0-1-0.2-1.9-0.5-2.8-0.4-0.9-0.9-1.7-1.6-2.4s-1.5-1.2-2.4-1.6c-0.9-0.3-1.9-0.5-2.8-0.4zm0 11.5c-0.9 0.1-1.7-0.1-2.5-0.6s-1.4-1.1-1.7-1.9c-0.4-0.8-0.5-1.7-0.4-2.5 0.1-0.9 0.5-1.7 1.1-2.3s1.4-1.1 2.2-1.3c0.9-0.2 1.7-0.1 2.6 0.2 0.8 0.3 1.5 0.9 2 1.6s0.8 1.6 0.8 2.5c0 0.6-0.1 1.1-0.2 1.6-0.2 0.5-0.5 1-0.9 1.4s-0.8 0.7-1.3 1c-0.6 0.2-1.2 0.3-1.7 0.3zm-18.8-9.3v3h7.3c-0.1 1.4-0.7 2.8-1.7 3.8-0.7 0.7-1.6 1.3-2.6 1.7s-2 0.6-3.1 0.5c-2.2 0-4.2-0.9-5.7-2.4s-2.4-3.6-2.4-5.7 0.9-4.2 2.4-5.7 3.6-2.4 5.7-2.4c2 0 4 0.8 5.5 2.2l2.1-2.1c-1-1-2.2-1.8-3.5-2.3s-2.7-0.8-4.1-0.8c-1.5-0.1-3 0.2-4.4 0.7s-2.7 1.3-3.8 2.4c-1.1 1-1.9 2.3-2.5 3.7s-0.9 2.9-0.9 4.4 0.3 3 0.9 4.4 1.5 2.6 2.5 3.7c1.1 1 2.4 1.9 3.8 2.4s2.9 0.8 4.4 0.7c1.4 0.1 2.9-0.2 4.2-0.7s2.6-1.4 3.6-2.4c1.8-1.9 2.7-4.5 2.6-7.1 0-0.6 0-1.3-0.2-1.9h-10.1v-0.1zm76.7 2.3c-0.4-1.3-1.3-2.4-2.4-3.3-1.1-0.8-2.4-1.3-3.8-1.3-0.9 0-1.8 0.2-2.7 0.6-0.8 0.4-1.6 0.9-2.2 1.6s-1.1 1.5-1.4 2.3c-0.3 0.9-0.4 1.8-0.4 2.7s0.2 1.9 0.5 2.8c0.4 0.9 0.9 1.7 1.5 2.4 0.7 0.7 1.5 1.2 2.3 1.6 0.9 0.4 1.8 0.5 2.8 0.5 1.2 0 2.4-0.3 3.4-0.8 1-0.6 1.9-1.4 2.6-2.4l-2.5-1.7c-0.4 0.6-0.9 1.1-1.5 1.5-0.6 0.3-1.3 0.5-2 0.5s-1.4-0.1-2.1-0.5c-0.6-0.4-1.1-0.9-1.4-1.6l9.6-4-0.3-0.9zm-9.8 2.4c0-0.5 0-1.1 0.2-1.5 0.2-0.5 0.4-1 0.8-1.3 0.3-0.4 0.8-0.7 1.3-0.9s1-0.4 1.5-0.4 1.1 0.1 1.6 0.4 0.9 0.7 1.1 1.2l-6.5 2.5zm-7.9 7h3.2v-21.1h-3.2v21.1zm-5.1-12.3c-0.5-0.5-1.1-1-1.7-1.3-0.7-0.3-1.4-0.4-2.1-0.4-1.8 0.1-3.6 0.9-4.9 2.2s-2 3.1-2 5 0.7 3.6 2 5c1.3 1.3 3 2.1 4.9 2.2 0.7 0 1.4-0.1 2.1-0.4s1.2-0.7 1.7-1.3v1c0 2.8-1.5 4.2-3.8 4.2-0.8 0-1.6-0.3-2.2-0.7-0.6-0.5-1.1-1.1-1.4-1.8l-2.8 1.1c0.5 1.3 1.4 2.3 2.5 3.1s2.5 1.2 3.8 1.2c3.7 0 6.8-2.2 6.8-7.5v-12.9h-2.9v1.3zm-3.7 9.9c-1.1-0.1-2.1-0.6-2.9-1.4s-1.2-1.9-1.2-3 0.4-2.2 1.2-3 1.8-1.3 2.9-1.4c1.1 0.1 2 0.7 2.7 1.5s1.1 1.8 1.1 2.9-0.4 2.1-1.1 2.9c-0.6 0.8-1.6 1.4-2.7 1.5zm41.3-18.7h-7.6v21.1h3.1v-8h4.4c0.9 0.1 1.8-0.1 2.7-0.4s1.6-0.8 2.3-1.4 1.2-1.4 1.5-2.2c0.4-0.8 0.5-1.7 0.5-2.6s-0.2-1.8-0.5-2.6c-0.4-0.8-0.9-1.6-1.5-2.2-0.7-0.6-1.4-1.1-2.3-1.4-0.8-0.3-1.7-0.4-2.6-0.3zm0 10.1h-4.5v-7.2h4.5c1 0 1.9 0.4 2.6 1.1s1.1 1.6 1.1 2.6-0.4 1.9-1.1 2.6c-0.7 0.5-1.6 0.9-2.6 0.9zm19.5-3c-1.2-0.1-2.3 0.2-3.3 0.8s-1.8 1.4-2.3 2.5l2.8 1.2c0.3-0.5 0.7-0.9 1.2-1.2s1.1-0.4 1.7-0.3c0.4 0 0.8 0 1.2 0.1s0.8 0.3 1.1 0.6 0.6 0.6 0.8 0.9c0.2 0.4 0.3 0.7 0.3 1.2v0.3c-1-0.5-2.1-0.8-3.3-0.8-3 0-6.1 1.7-6.1 4.8 0 0.7 0.2 1.3 0.5 1.9s0.7 1.1 1.2 1.6c0.5 0.4 1.1 0.8 1.7 1s1.3 0.3 1.9 0.2c0.8 0 1.6-0.1 2.3-0.5s1.3-0.9 1.7-1.6h0.1v1.4h3.1v-8.2c-0.1-3.8-2.9-5.9-6.6-5.9zm-0.3 11.6c-1 0-2.5-0.5-2.5-1.8 0-1.7 1.8-2.3 3.4-2.3 1 0 2 0.2 2.9 0.7-0.1 0.9-0.6 1.8-1.3 2.4-0.7 0.7-1.7 1-2.5 1zm17.8-11.2-3.6 9.2h-0.1l-3.8-9.2h-3.4l5.6 12.8-3.2 7.1h3.3l8.7-19.9h-3.5zm-28.3 13.6h3.2v-21.2h-3.2v21.2z"/>
	
		<linearGradient id="d" x1="37.053" x2="8.6754" y1="145.05" y2="173.42" gradientTransform="translate(0 -130)" gradientUnits="userSpaceOnUse">
		<stop stop-color="#00A0FF" offset="0"/>
		<stop stop-color="#00A1FF" offset=".01"/>
		<stop stop-color="#00BEFF" offset=".26"/>
		<stop stop-color="#00D2FF" offset=".51"/>
		<stop stop-color="#00DFFF" offset=".76"/>
		<stop stop-color="#00E3FF" offset="1"/>
	</linearGradient>
	<path class="st2" d="m17.9 13c-0.6 0.7-0.8 1.5-0.8 2.4v37.4c-0.1 0.9 0.2 1.7 0.8 2.4l0.1 0.1 21-20.9v-0.5l-20.9-21-0.2 0.1z"/>
	
		<linearGradient id="c" x1="57.375" x2="16.448" y1="164.1" y2="164.1" gradientTransform="translate(0 -130)" gradientUnits="userSpaceOnUse">
		<stop stop-color="#FFE000" offset="0"/>
		<stop stop-color="#FFBD00" offset=".41"/>
		<stop stop-color="#FFA500" offset=".78"/>
		<stop stop-color="#FF9C00" offset="1"/>
	</linearGradient>
	<path class="st3" d="m45.9 41.3-7-6.9v-0.5l7-7 0.2 0.1 8.3 4.7c2.4 1.3 2.4 3.5 0 4.9l-8.3 4.6-0.2 0.1z"/>
	
		<linearGradient id="b" x1="42.124" x2="3.633" y1="167.98" y2="206.45" gradientTransform="translate(0 -130)" gradientUnits="userSpaceOnUse">
		<stop stop-color="#FF3A44" offset="0"/>
		<stop stop-color="#C31162" offset="1"/>
	</linearGradient>
	<path class="st4" d="m46.1 41.2-7.2-7.1-21 21.1c0.5 0.4 1.1 0.7 1.7 0.7s1.3-0.2 1.8-0.6l24.7-14.1z"/>
	
		<linearGradient id="a" x1="12.511" x2="29.694" y1="130.56" y2="147.74" gradientTransform="translate(0 -130)" gradientUnits="userSpaceOnUse">
		<stop stop-color="#32A071" offset="0"/>
		<stop stop-color="#2DA771" offset=".07"/>
		<stop stop-color="#15CF74" offset=".48"/>
		<stop stop-color="#06E775" offset=".8"/>
		<stop stop-color="#00F076" offset="1"/>
	</linearGradient>
	<path class="st5" d="m46.1 27-24.6-14c-0.5-0.4-1.1-0.6-1.8-0.6-0.6 0-1.3 0.3-1.7 0.7l21 21 7.1-7.1z"/>
	<path class="st6" d="m45.9 41.1-24.5 14c-0.5 0.4-1.1 0.6-1.7 0.6s-1.2-0.2-1.7-0.6l-0.1 0.1 0.1 0.1c0.5 0.4 1.1 0.6 1.7 0.6s1.2-0.2 1.7-0.6l24.7-14.1-0.2-0.1z"/>
	<path class="st7" d="m17.9 54.9c-0.6-0.7-0.8-1.5-0.8-2.4v0.3c-0.1 0.9 0.2 1.7 0.8 2.4l0.1-0.1-0.1-0.2z"/>
	<path class="st7" d="m54.3 36.3-8.4 4.8 0.2 0.2 8.3-4.7c0.5-0.2 0.9-0.5 1.2-1s0.5-1 0.5-1.5c-0.1 0.5-0.3 0.9-0.6 1.3s-0.7 0.7-1.2 0.9z"/>
	<path class="st8" d="m21.4 13.2 33 18.7c0.4 0.2 0.8 0.5 1.1 0.9s0.5 0.8 0.6 1.3c-0.1-0.5-0.2-1-0.6-1.5-0.3-0.4-0.7-0.8-1.2-1l-33-18.7c-2.2-1.3-4.2-0.2-4.2 2.5v0.3c0-2.8 1.9-3.9 4.3-2.5z"/>
	<path class="st9" d="m71.4 24.4h-1.3v-3.4h1c0.5-0.5 0.9-1.1 1.1-1.8s0.3-1.4 0.2-2.1v-5h6.8v8.9h1.1v3.4h-1.2v-2.1h-7.7v2.1zm2.4-7.3c0.1 1.4-0.3 2.7-1 3.9h5.1v-7.6h-4.2l0.1 3.7z"/>
	<path class="st9" d="m90.5 20.9c-0.5 0.5-1.1 0.9-1.7 1.1-0.6 0.3-1.3 0.4-2 0.4s-1.4-0.1-2-0.4-1.2-0.7-1.7-1.1c-0.5-0.5-0.9-1.1-1.1-1.7-0.3-0.6-0.4-1.3-0.4-2s0.1-1.4 0.4-2 0.6-1.2 1.1-1.7 1.1-0.9 1.7-1.1c0.6-0.3 1.3-0.4 2-0.4s1.4 0.1 2 0.4 1.2 0.7 1.7 1.2c1 1 1.5 2.4 1.5 3.8 0 1.1-0.5 2.5-1.5 3.5zm-6.4-0.9c0.4 0.4 0.8 0.7 1.3 0.9s1 0.3 1.5 0.3 1-0.1 1.5-0.3 0.9-0.5 1.3-0.9c0.7-0.8 1.1-1.8 1.1-2.9s-0.4-2.1-1.1-2.9c-0.4-0.4-0.8-0.7-1.3-0.9s-1-0.3-1.5-0.3-1 0.1-1.5 0.3-0.9 0.5-1.3 0.9c-0.7 0.8-1.1 1.8-1.1 2.9s0.3 2.2 1.1 2.9z"/>
	<path class="st9" d="m98.6 22.5c-1 0-2.1-0.3-2.9-0.9-0.9-0.6-1.5-1.4-1.9-2.4s-0.5-2-0.3-3 0.7-2 1.4-2.7c0.5-0.5 1.1-0.9 1.7-1.1 0.6-0.3 1.3-0.4 2-0.4s1.4 0.1 2.1 0.4c0.6 0.3 1.2 0.7 1.7 1.3l-0.9 0.9c-0.3-0.4-0.8-0.8-1.3-1s-1-0.3-1.6-0.3c-0.5 0-1 0.1-1.5 0.3s-0.9 0.5-1.3 0.9c-0.7 0.6-1.2 1.6-1.2 2.7s0.4 2.1 1.2 2.9c0.4 0.4 0.8 0.7 1.3 0.9s1 0.3 1.5 0.3c0.6 0 1.2-0.1 1.7-0.4s1-0.6 1.4-1.1l0.9 0.9c-0.5 0.6-1 1-1.7 1.3-0.7 0.4-1.5 0.5-2.3 0.5z"/>
	<path class="st9" d="m107.9 22.3h-1.3v-8.9h-2.8v-1.3h7v1.3h-2.8l-0.1 8.9z"/>
	<path class="st9" d="m119.7 12.1-3.8 8.6c-0.1 0.3-0.3 0.7-0.5 0.9-0.2 0.3-0.5 0.5-0.8 0.6-0.3 0.2-0.7 0.2-1 0.2-0.4 0-0.7-0.1-1-0.2l0.3-1.2c0.2 0.1 0.4 0.2 0.7 0.2 0.2 0 0.5-0.1 0.7-0.2 0.2-0.2 0.4-0.4 0.5-0.6l0.4-0.8-3.4-7.5h1.5l2.5 5.8 2.3-5.8h1.6z"/>
	<path class="st9" d="m121.2 22.3v-10.2h7.3v10.1h-1.3v-8.9h-4.7v8.9h-1.3v0.1z"/>
	<path class="st9" d="m130.8 22.3v-10.2h1.3v4.3h5.1v-4.3h1.3v10.1h-1.3v-4.6h-5.1v4.6h-1.3v0.1z"/>
	<path class="st9" d="m149.1 20.9c-0.5 0.5-1.1 0.9-1.7 1.1-0.6 0.3-1.3 0.4-2 0.4s-1.4-0.1-2-0.4-1.2-0.7-1.7-1.1c-0.5-0.5-0.9-1.1-1.1-1.7-0.3-0.6-0.4-1.3-0.4-2s0.1-1.4 0.4-2 0.6-1.2 1.1-1.7c1-1 2.3-1.5 3.7-1.5s2.7 0.5 3.7 1.5c0.5 0.5 0.9 1.1 1.1 1.7 0.3 0.6 0.4 1.3 0.4 2s-0.1 1.4-0.4 2-0.6 1.2-1.1 1.7zm-6.5-0.9c0.4 0.4 0.8 0.7 1.3 0.9s1 0.3 1.5 0.3 1-0.1 1.5-0.3 0.9-0.5 1.3-0.9c0.7-0.8 1.1-1.8 1.1-2.9s-0.4-2.1-1.1-2.9c-0.4-0.4-0.8-0.7-1.3-0.9s-1-0.3-1.5-0.3-1 0.1-1.5 0.3-0.9 0.5-1.3 0.9c-0.7 0.8-1.1 1.8-1.1 2.9s0.4 2.1 1.1 2.9z"/>
	<path class="st9" d="m155.9 22.3v-10.2h3.7c0.8 0 1.5 0.3 2.1 0.8 0.3 0.2 0.5 0.6 0.6 0.9s0.2 0.7 0.2 1.1c0 0.5-0.1 0.9-0.4 1.3-0.2 0.4-0.6 0.7-1 0.8 0.5 0.2 0.9 0.5 1.2 0.9s0.5 0.9 0.5 1.5c0 0.4-0.1 0.8-0.2 1.1-0.2 0.4-0.4 0.7-0.7 0.9-0.6 0.5-1.4 0.8-2.2 0.8l-3.8 0.1zm1.4-5.8h2.4c0.2 0 0.4 0 0.6-0.1s0.4-0.2 0.5-0.4c0.3-0.3 0.4-0.7 0.4-1.1s-0.2-0.8-0.4-1.1c-0.1-0.2-0.3-0.3-0.5-0.4s-0.4-0.1-0.6-0.1h-2.4v3.2zm0 4.5h2.6c0.2 0 0.5 0 0.7-0.1s0.4-0.2 0.6-0.4c0.3-0.3 0.5-0.7 0.5-1.1s-0.2-0.9-0.5-1.2-0.7-0.5-1.2-0.5h-2.6l-0.1 3.3z"/>

</svg>
