<svg width="65" height="65" viewBox="0 0 65 65" fill="none" xmlns="http://www.w3.org/2000/svg">
<circle cx="32.5" cy="32.5" r="32.5" fill="white"/>
<path fill-rule="evenodd" clip-rule="evenodd" d="M0 32.5C0 14.5507 14.5507 0 32.5 0C50.4493 0 65 14.5507 65 32.5C65 50.4493 50.4493 65 32.5 65C14.5507 65 0 50.4493 0 32.5ZM46.57 46.57C48.3992 44.7407 49.4269 42.2598 49.427 39.6729V25.3271C49.4269 22.7402 48.3992 20.2592 46.57 18.43C44.7407 16.6008 42.2598 15.5731 39.6729 15.573H25.3271C22.7402 15.573 20.2592 16.6007 18.4299 18.43C16.6007 20.2592 15.5729 22.7402 15.5728 25.3271V39.6729C15.573 42.2598 16.6007 44.7408 18.43 46.57C20.2592 48.3992 22.7402 49.4269 25.3271 49.427H39.6729C42.2598 49.4269 44.7407 48.3992 46.57 46.57ZM39.9591 18.7285H25.0404C24.2115 18.7285 23.3907 18.8918 22.6249 19.2089C21.8591 19.5261 21.1633 19.9911 20.5772 20.5772C19.9911 21.1633 19.5261 21.8591 19.2089 22.6249C18.8918 23.3907 18.7285 24.2115 18.7285 25.0404V39.9591C18.7285 41.6332 19.3935 43.2386 20.5772 44.4223C21.1633 45.0084 21.8591 45.4733 22.6249 45.7905C23.3907 46.1077 24.2115 46.271 25.0404 46.271H39.9591C41.6331 46.271 43.2385 45.606 44.4222 44.4223C45.6059 43.2386 46.2709 41.6331 46.2709 39.9591V25.0404C46.2709 24.2115 46.1076 23.3907 45.7905 22.6249C45.4733 21.8592 45.0084 21.1633 44.4223 20.5772C43.8362 19.9911 43.1404 19.5262 42.3746 19.209C41.6088 18.8918 40.788 18.7285 39.9591 18.7285ZM32.4998 41.1822C30.7825 41.1822 29.1039 40.673 27.676 39.719C26.2482 38.7649 25.1354 37.4089 24.4782 35.8224C23.8211 34.2359 23.6491 32.4901 23.9841 30.8059C24.3192 29.1217 25.1461 27.5746 26.3603 26.3603C27.5746 25.1461 29.1217 24.3192 30.8059 23.9841C32.4901 23.6491 34.2359 23.8211 35.8224 24.4782C37.4089 25.1354 38.7649 26.2482 39.719 27.676C40.673 29.1039 41.1822 30.7825 41.1822 32.4998C41.1822 33.64 40.9576 34.769 40.5213 35.8224C40.085 36.8758 39.4454 37.8329 38.6392 38.6392C37.8329 39.4454 36.8758 40.085 35.8224 40.5213C34.769 40.9576 33.64 41.1822 32.4998 41.1822ZM41.5442 25.591C41.1356 25.591 40.7362 25.4699 40.3965 25.2429C40.0568 25.0159 39.792 24.6933 39.6356 24.3159C39.4793 23.9384 39.4384 23.5231 39.518 23.1224C39.5977 22.7217 39.7945 22.3536 40.0833 22.0647C40.3722 21.7758 40.7403 21.5791 41.141 21.4994C41.5417 21.4196 41.957 21.4605 42.3345 21.6169C42.7119 21.7732 43.0346 22.038 43.2615 22.3777C43.4885 22.7174 43.6097 23.1168 43.6097 23.5253C43.6097 24.0731 43.3921 24.5985 43.0047 24.9859C42.6174 25.3733 42.092 25.5909 41.5442 25.591ZM32.5001 26.8564C31.3839 26.8564 30.2928 27.1874 29.3647 27.8076C28.4366 28.4277 27.7132 29.3091 27.2861 30.3404C26.8589 31.3716 26.7471 32.5064 26.9649 33.6012C27.1827 34.6959 27.7202 35.7016 28.5095 36.4908C29.2987 37.2801 30.3043 37.8176 31.3991 38.0354C32.4939 38.2532 33.6287 38.1414 34.6599 37.7142C35.6912 37.2871 36.5726 36.5637 37.1927 35.6356C37.8129 34.7075 38.1439 33.6164 38.1439 32.5001C38.1439 31.0033 37.5492 29.5678 36.4908 28.5094C35.4324 27.451 33.997 26.8564 32.5001 26.8564Z" fill="url(#paint0_linear)"/>
<defs>
<linearGradient id="paint0_linear" x1="53.8281" y1="6.72852" x2="-3.47325e-06" y2="65" gradientUnits="userSpaceOnUse">
<stop stop-color="#8151B2"/>
<stop offset="0.338542" stop-color="#C54C8F"/>
<stop offset="0.661458" stop-color="#E4655A"/>
<stop offset="1" stop-color="#FFCB52"/>
</linearGradient>
</defs>
</svg>
