<svg width="731" height="1151" viewBox="0 0 731 1151" fill="none" xmlns="http://www.w3.org/2000/svg">
<path d="M2.99824 1149.39C1.60016 1148.5 1.18673 1146.65 2.07482 1145.25L316.265 650.566C317.153 649.167 319.006 648.754 320.404 649.643C321.803 650.531 322.216 652.385 321.328 653.783L7.1377 1148.47C6.24961 1149.87 4.39632 1150.28 2.99824 1149.39Z" fill="white"/>
<path d="M341.407 604.592C340.009 603.704 339.595 601.85 340.483 600.451L654.577 105.706C655.464 104.307 657.317 103.894 658.715 104.783C660.113 105.671 660.527 107.525 659.639 108.924L345.545 603.669C344.657 605.068 342.805 605.481 341.407 604.592Z" fill="#060606"/>
<path d="M695.918 45.4561C693.588 43.975 692.899 40.8849 694.379 38.5542L719.35 -0.779814C720.83 -3.11055 723.918 -3.79932 726.248 -2.31822C728.578 -0.837127 729.267 2.25297 727.788 4.58371L702.816 43.9177C701.336 46.2484 698.248 46.9372 695.918 45.4561Z" fill="#060606"/>
<path d="M612.676 208.818C610.346 207.337 609.657 204.247 611.136 201.916L691.537 75.273C693.017 72.9423 696.105 72.2535 698.435 73.7346C700.765 75.2157 701.454 78.3058 699.974 80.6365L619.573 207.28C618.094 209.611 615.005 210.299 612.676 208.818Z" fill="white"/>
<path d="M137.151 984.317C134.355 982.54 133.528 978.832 135.303 976.035L407.59 547.141C409.366 544.344 413.072 543.518 415.868 545.295C418.664 547.072 419.491 550.78 417.715 553.577L145.428 982.471C143.652 985.268 139.946 986.094 137.151 984.317Z" fill="#FDAB2F"/>
</svg>
