<svg width="471" height="176" viewBox="0 0 471 176" fill="none" xmlns="http://www.w3.org/2000/svg">
<path d="M50.1541 117.493L44.1983 60.8271L64.8026 58.6614L62.9949 41.4621L0 48.0831L1.80773 65.2825L22.4121 63.1169L27.9498 115.805C28.1807 118.002 30.149 119.595 32.346 119.365L50.1541 117.493Z" fill="white"/>
<path d="M85.5431 126.283C92.788 125.522 98.7906 121.837 100.521 117.049L101.549 116.941L102.259 123.698L122.812 121.538L118.696 82.3785C117.373 69.7861 107.211 63.5568 90.7174 65.2904C74.1208 67.0348 64.3407 75.3083 64.8587 87.1573L83.4592 85.2023C84.3612 82.4163 86.8472 80.8611 91.0092 80.4237C95.0684 79.997 97.7285 81.5806 98.0405 84.5495L98.4871 88.7982L87.1501 90.6626C71.9296 93.1421 64.2052 100.216 65.3082 110.71C66.4165 121.255 74.4959 127.444 85.5431 126.283ZM92.2794 111.291C88.2715 111.712 85.5494 110.032 85.2319 107.011C84.936 104.196 87.3115 102.083 91.6981 101.312L99.6545 99.9061L100.01 103.285C100.429 107.277 97.0066 110.794 92.2794 111.291Z" fill="white"/>
<path d="M244.644 90.9811C244.021 93.9449 240.91 95.9797 236.234 96.4712C230.068 97.1192 225.914 93.6743 225.246 87.3269L225.128 86.2008L263.151 82.2044L262.575 76.7272C260.628 58.1969 248.873 48.6676 230.426 50.6064C211.929 52.5506 202.087 65.1779 204.109 84.4249C206.111 103.467 217.969 112.986 237.135 110.971C252.755 109.329 263.027 100.797 263.604 88.9883L244.644 90.9811ZM232.098 65.0254C237.339 64.4745 240.858 67.3134 241.809 72.9063L224.031 74.7749C223.877 69.3569 227.062 65.5546 232.098 65.0254Z" fill="white"/>
<path d="M296.618 73.408L295.9 60.6484L306.176 59.5683L309.508 91.2655C310.119 97.083 315.331 101.303 321.148 100.692C326.966 100.08 331.186 94.8688 330.575 89.0513L325.634 42.0487L276.564 47.2062L278.256 73.6818C278.755 81.3925 278.226 88.2278 272.883 88.7894C271.187 88.9677 269.881 88.8979 269.094 88.8254L270.902 106.025C271.853 106.183 274.271 106.447 277.354 106.123C293.539 104.422 297.649 91.6206 296.618 73.408Z" fill="white"/>
<path d="M367.751 73.5394L378.867 89.3215C381.014 92.3703 384.643 94.0183 388.352 93.6284C396.331 92.7898 400.321 83.546 395.459 77.1641L383.766 61.8159L399.163 34.3206L375.938 36.7616L365.88 59.1933L363.31 59.4633L361.088 38.3224L340.022 40.5366L346.069 98.0726L367.136 95.8584L364.822 73.8473L367.751 73.5394Z" fill="white"/>
<path d="M429.189 90.1644C436.434 89.4029 442.437 85.7185 444.167 80.9305L445.195 80.8225L445.905 87.5794L458.502 86.2554C462.896 85.7936 466.084 81.8571 465.622 77.463L462.342 46.2599C461.019 33.6675 450.857 27.4382 434.363 29.1718C417.767 30.9161 407.987 39.1896 408.505 51.0386L427.105 49.0836C428.007 46.2976 430.493 44.7425 434.655 44.305C438.714 43.8784 441.374 45.462 441.686 48.4309L442.133 52.6796L430.796 54.5439C415.575 57.0235 407.851 64.0976 408.954 74.5913C410.062 85.1361 418.142 91.3255 429.189 90.1644ZM435.925 75.1722C431.917 75.5935 429.195 73.9129 428.878 70.8928C428.582 68.0774 430.957 65.9646 435.344 65.193L443.3 63.7875L443.656 67.1659C444.075 71.1586 440.652 74.6754 435.925 75.1722Z" fill="white"/>
<ellipse cx="168.954" cy="155.245" rx="18.8948" ry="3.76471"  fill="black" fill-opacity="0.1"/>
<ellipse cx="161.871" cy="87.8515" rx="34.0107" ry="33.8824"  fill="white"/>
<ellipse cx="161.871" cy="87.8515" rx="15.1158" ry="15.0588"  fill="#FDAB2F"/>
<rect x="160.67" y="112.583" width="7.55792" height="43.2941" rx="2" fill="white"/>
</svg>
