<svg width="225" height="208" viewBox="0 0 225 208" fill="none" xmlns="http://www.w3.org/2000/svg">
<g filter="url(#filter0_f)">
<path d="M115.43 188C161.753 188 199.304 150.479 199.304 104.194C199.304 57.9096 161.753 20.3885 115.43 20.3885C69.1077 20.3885 31.5559 57.9096 31.5559 104.194C31.5559 150.479 69.1077 188 115.43 188Z" fill="black" fill-opacity="0.35"/>
</g>
<path d="M110.034 183.604C156.907 183.604 194.905 145.637 194.905 98.8018C194.905 51.967 156.907 14 110.034 14C63.1605 14 25.1624 51.967 25.1624 98.8018C25.1624 145.637 63.1605 183.604 110.034 183.604Z" fill="white"/>
<path d="M110.033 163.82C145.971 163.82 175.105 134.71 175.105 98.8017C175.105 62.8932 145.971 33.7836 110.033 33.7836C74.0956 33.7836 44.9622 62.8932 44.9622 98.8017C44.9622 134.71 74.0956 163.82 110.033 163.82Z" fill="url(#paint0_linear)"/>
<path d="M110.034 152.485C139.82 152.485 163.967 128.404 163.967 98.6987C163.967 68.9931 139.82 44.9119 110.034 44.9119C80.2466 44.9119 56.0996 68.9931 56.0996 98.6987C56.0996 128.404 80.2466 152.485 110.034 152.485Z" fill="white"/>
<path d="M149.743 101.159C156.907 93.9989 153.755 79.2382 142.702 68.1904C131.649 57.1427 116.882 53.9915 109.718 61.1521C102.554 68.3126 105.706 83.0734 116.759 94.1211C127.812 105.169 142.58 108.32 149.743 101.159Z" fill="#1E1E1E"/>
<rect width="8.384" height="108.992" rx="4.192" transform="matrix(0.707396 -0.706818 0.707396 0.706818 141.969 100.044)" fill="#1E1E1E"/>
<path d="M65.9803 111.525C64.3425 109.889 64.3425 107.236 65.9803 105.599C67.618 103.963 70.2734 103.963 71.9111 105.599L106.013 139.673C107.651 141.31 107.651 143.963 106.013 145.599C104.376 147.236 101.72 147.236 100.082 145.599L65.9803 111.525Z" fill="#1E1E1E"/>
<rect width="8.384" height="159.296" rx="4.192" transform="matrix(0.707269 -0.706945 0.707269 0.706945 0 26.3394)" fill="#1E1E1E"/>
<rect width="8.384" height="56.592" rx="4.192" transform="matrix(0.707396 -0.706818 0.707396 0.706818 82.29 89.3027)" fill="#1E1E1E"/>
<defs>
<filter id="filter0_f" x="11.5559" y="0.388535" width="207.749" height="207.611" filterUnits="userSpaceOnUse" color-interpolation-filters="sRGB">
<feFlood flood-opacity="0" result="BackgroundImageFix"/>
<feBlend mode="normal" in="SourceGraphic" in2="BackgroundImageFix" result="shape"/>
<feGaussianBlur stdDeviation="10" result="effect1_foregroundBlur"/>
</filter>
<linearGradient id="paint0_linear" x1="163.352" y1="158.946" x2="20.474" y2="-2.48208" gradientUnits="userSpaceOnUse">
<stop stop-color="white"/>
<stop offset="0.92" stop-color="#E6E6E6"/>
</linearGradient>
</defs>
</svg>
