<svg width="278" height="78" viewBox="0 0 278 78" fill="none" xmlns="http://www.w3.org/2000/svg">
<path d="M25.723 44.8221V10.4368H38.2259V0L0 0L0 10.4368H12.5029V40.8221C12.5029 43.0313 14.2938 44.8221 16.5029 44.8221H25.723Z" fill="white"/>
<path d="M46.4083 52.3302C50.8046 52.3302 54.6396 50.4975 55.9803 47.733H56.6039V51.8332H69.0757V28.071C69.0757 20.4298 63.3699 16.0501 53.3613 16.0501C43.2903 16.0501 36.8986 20.3987 36.462 27.5429H47.749C48.4661 25.9277 50.0563 25.1512 52.5818 25.1512C55.045 25.1512 56.5416 26.2694 56.5416 28.071V30.6491L49.6197 31.0529C40.3283 31.5809 35.246 35.3394 35.246 41.7071C35.246 48.1058 39.7047 52.3302 46.4083 52.3302ZM51.397 43.7571C48.965 43.7571 47.4372 42.5768 47.4372 40.7442C47.4372 39.0358 48.9962 37.9175 51.6776 37.7312L56.5416 37.3895V39.4396C56.5416 41.8624 54.2655 43.7571 51.397 43.7571Z" fill="white"/>
<path d="M144.124 41.179C143.563 42.9185 141.568 43.9435 138.73 43.9435C134.989 43.9435 132.713 41.6139 132.713 37.7622V37.0789H155.786V33.7553C155.786 22.5109 149.331 16.0501 138.138 16.0501C126.913 16.0501 120.21 23.0079 120.21 34.6871C120.21 46.2421 126.726 52.7029 138.356 52.7029C147.835 52.7029 154.538 48.23 155.63 41.179H144.124ZM138.232 24.8095C141.412 24.8095 143.345 26.7353 143.563 30.1521H132.775C133.025 26.8906 135.176 24.8095 138.232 24.8095Z" fill="white"/>
<path d="M176.426 33.9106L176.8 26.2073H183.036V45.4414C183.036 48.9715 185.898 51.8332 189.428 51.8332C192.958 51.8332 195.82 48.9715 195.82 45.4414V16.9198H166.044L165.389 32.9166C165.202 37.5759 164.453 41.6449 161.211 41.6449C160.182 41.6449 159.402 41.5207 158.935 41.4275V51.8643C159.496 52.0196 160.93 52.3302 162.801 52.3302C172.622 52.3302 175.896 44.9064 176.426 33.9106Z" fill="white"/>
<path d="M219.111 38.4766L224.787 48.6499C225.883 50.6152 227.957 51.8332 230.208 51.8332C235.05 51.8332 238.028 46.537 235.512 42.4L229.462 32.4507L240.438 16.9198H226.344L218.893 29.7483H217.334V16.9198H204.55V51.8332H217.334V38.4766H219.111Z" fill="white"/>
<path d="M254.936 52.3302C259.332 52.3302 263.167 50.4975 264.508 47.733H265.132V51.8332H269.603C274.022 51.8332 277.603 48.2515 277.603 43.8332V28.071C277.603 20.4298 271.898 16.0501 261.889 16.0501C251.818 16.0501 245.426 20.3987 244.99 27.5429H256.277C256.994 25.9277 258.584 25.1512 261.11 25.1512C263.573 25.1512 265.069 26.2694 265.069 28.071V30.6491L258.147 31.0529C248.856 31.5809 243.774 35.3394 243.774 41.7071C243.774 48.1058 248.232 52.3302 254.936 52.3302ZM259.925 43.7571C257.493 43.7571 255.965 42.5768 255.965 40.7442C255.965 39.0358 257.524 37.9175 260.205 37.7312L265.069 37.3895V39.4396C265.069 41.8624 262.793 43.7571 259.925 43.7571Z" fill="white"/>
<ellipse cx="94.6425" cy="74.9742" rx="11.4027" ry="2.27195" fill="black" fill-opacity="0.1"/>
<ellipse cx="94.6426" cy="34.0792" rx="20.5249" ry="20.4475" fill="white"/>
<ellipse cx="94.6427" cy="34.0792" rx="9.1222" ry="9.08778" fill="#FDAB2F"/>
<rect x="92.3623" y="48.8468" width="4.5611" height="26.1274" rx="2" fill="white"/>
</svg>
