<svg width="65" height="65" viewBox="0 0 65 65" fill="none" xmlns="http://www.w3.org/2000/svg">
<path d="M32.5 0C14.5507 0 0 14.5507 0 32.5C0 50.4493 14.5507 65 32.5 65C50.4493 65 65 50.4493 65 32.5C65 14.5507 50.4493 0 32.5 0Z" fill="url(#paint0_linear)"/>
<path d="M49.9849 23.8074C48.7785 23.8075 47.5839 23.5698 46.4693 23.1082C45.3546 22.6465 44.3419 21.9698 43.4888 21.1167C42.6357 20.2636 41.959 19.2509 41.4973 18.1363C41.0356 17.0217 40.798 15.827 40.798 14.6206H34.2345V40.322C34.2333 41.4938 33.8632 42.6355 33.1769 43.5852C32.4906 44.5349 31.5227 45.2446 30.4105 45.6135C29.2983 45.9825 28.0982 45.992 26.9803 45.6408C25.8624 45.2896 24.8834 44.5955 24.182 43.6568C23.4806 42.7181 23.0925 41.5825 23.0726 40.4109C23.0527 39.2393 23.402 38.0911 24.0711 37.1291C24.7402 36.1672 25.695 35.4402 26.8004 35.0512C27.9057 34.6622 29.1054 34.631 30.2295 34.9619V28.5818C27.8406 28.2596 25.4104 28.674 23.2632 29.7694C21.116 30.8649 19.3541 32.5894 18.2128 34.7125C17.0714 36.8357 16.605 39.2565 16.8757 41.6517C17.1465 44.047 18.1415 46.3026 19.728 48.1175C21.3144 49.9323 23.4168 51.22 25.7543 51.8085C28.0918 52.397 30.5533 52.2584 32.81 51.4112C35.0667 50.564 37.0112 49.0485 38.3839 47.067C39.7566 45.0856 40.4921 42.7325 40.4923 40.322L40.6827 27.3306C43.3795 29.3104 46.6388 30.3756 49.9842 30.3707L49.9849 23.8074Z" fill="url(#paint1_linear)"/>
<path d="M48.2497 22.02C45.8132 22.0199 43.4766 21.052 41.7537 19.3291C40.0309 17.6062 39.0631 15.2695 39.0631 12.833H32.4996V38.5344C32.4984 39.7062 32.1284 40.8479 31.4421 41.7976C30.7558 42.7474 29.7879 43.4571 28.6757 43.826C27.5636 44.195 26.3635 44.2046 25.2455 43.8534C24.1276 43.5022 23.1486 42.8081 22.4472 41.8694C21.7458 40.9307 21.3576 39.7951 21.3377 38.6235C21.3178 37.4518 21.6671 36.3037 22.3362 35.3417C23.0053 34.3797 23.9602 33.6527 25.0655 33.2637C26.1708 32.8747 27.3706 32.8435 28.4946 33.1745V26.7942C26.1058 26.472 23.6755 26.8864 21.5283 27.9818C19.3811 29.0773 17.6192 30.8018 16.4779 32.9249C15.3366 35.0481 14.8701 37.4689 15.1409 39.8641C15.4116 42.2594 16.4067 44.515 17.9931 46.3299C19.5795 48.1447 21.6819 49.4324 24.0194 50.0209C26.357 50.6094 28.8184 50.4709 31.0751 49.6236C33.3318 48.7764 35.2763 47.2609 36.649 45.2794C38.0217 43.298 38.7573 40.9449 38.7574 38.5344L38.9489 25.5432C41.6456 27.5229 44.9049 28.5881 48.2503 28.5831L48.2497 22.02Z" fill="url(#paint2_linear)"/>
<path d="M48.25 23.6432C45.9791 23.2062 43.9565 21.9289 42.586 20.0661C40.8538 18.7105 39.6657 16.7782 39.2376 14.6206H34.235V40.322C34.2349 41.5418 33.8357 42.7281 33.0982 43.6997C32.3608 44.6713 31.3257 45.375 30.1509 45.7032C28.9761 46.0315 27.7262 45.9663 26.5919 45.5177C25.4576 45.069 24.5013 44.2615 23.8689 43.2184C22.7444 42.4865 21.9207 41.3743 21.5485 40.0852C21.1763 38.796 21.2803 37.416 21.8416 36.1973C22.4029 34.9785 23.384 34.0024 24.6056 33.4474C25.8272 32.8923 27.2077 32.7953 28.495 33.174V28.4789C26.2871 28.5074 24.1311 29.1524 22.2704 30.3412C20.4096 31.53 18.9182 33.2153 17.9645 35.2068C17.0108 37.1982 16.6328 39.4167 16.8731 41.6116C17.1134 43.8066 17.9624 45.8907 19.3244 47.6287C21.0534 49.0714 23.158 49.9914 25.3912 50.2807C27.6245 50.57 29.894 50.2167 31.9336 49.2622C33.9733 48.3077 35.6985 46.7915 36.9072 44.8913C38.1158 42.9912 38.7578 40.7859 38.7577 38.534L38.9492 25.5428C41.6459 27.5225 44.9052 28.5876 48.2506 28.5827L48.25 23.6432Z" fill="url(#paint3_linear)"/>
<defs>
<linearGradient id="paint0_linear" x1="-0.171006" y1="65.171" x2="64.8348" y2="0.165166" gradientUnits="userSpaceOnUse">
<stop stop-color="#111111"/>
<stop offset="1" stop-color="#323232"/>
</linearGradient>
<linearGradient id="paint1_linear" x1="19.4313" y1="47.8569" x2="46.7328" y2="20.5553" gradientUnits="userSpaceOnUse">
<stop stop-color="#B5053C"/>
<stop offset="0.233" stop-color="#C90441"/>
<stop offset="0.737" stop-color="#F0014B"/>
<stop offset="1" stop-color="#FF004F"/>
</linearGradient>
<linearGradient id="paint2_linear" x1="17.2896" y1="46.4757" x2="46.0483" y2="17.7172" gradientUnits="userSpaceOnUse">
<stop stop-color="#00B2C9"/>
<stop offset="0.283" stop-color="#00C8D4"/>
<stop offset="0.741" stop-color="#00E6E4"/>
<stop offset="1" stop-color="#00F1EA"/>
</linearGradient>
<linearGradient id="paint3_linear" x1="1.17795" y1="64.3489" x2="64.8354" y2="0.691434" gradientUnits="userSpaceOnUse">
<stop stop-color="#DDE3E4"/>
<stop offset="1" stop-color="#FCF7F7"/>
</linearGradient>
</defs>
</svg>
